<svg xmlns="http://www.w3.org/2000/svg" xmlns:xlink="http://www.w3.org/1999/xlink" width="500" zoomAndPan="magnify" viewBox="0 0 375 374.999991" height="500" preserveAspectRatio="xMidYMid meet" version="1.0"><defs><g/><clipPath id="3cd5282024"><path d="M 147 73.445312 L 228 73.445312 L 228 213.695312 L 147 213.695312 Z M 147 73.445312 " clip-rule="nonzero"/></clipPath></defs><g fill="#1c7675" fill-opacity="1"><g transform="translate(67.516377, 275.360372)"><g><path d="M 34.3125 -7.65625 C 34.476562 -7.65625 34.625 -7.585938 34.75 -7.453125 C 34.882812 -7.328125 34.953125 -7.179688 34.953125 -7.015625 C 34.953125 -6.753906 34.84375 -6.566406 34.625 -6.453125 C 33 -5.566406 31.410156 -4.890625 29.859375 -4.421875 C 28.316406 -3.960938 26.863281 -3.648438 25.5 -3.484375 C 24.144531 -3.328125 22.929688 -3.25 21.859375 -3.25 C 21.628906 -3.25 21.398438 -3.25 21.171875 -3.25 C 20.953125 -3.257812 20.734375 -3.269531 20.515625 -3.28125 C 20.484375 -3.28125 20.441406 -3.25 20.390625 -3.1875 C 19.085938 -1.882812 17.773438 -0.773438 16.453125 0.140625 C 15.140625 1.066406 13.851562 1.769531 12.59375 2.25 C 11.34375 2.738281 10.171875 2.984375 9.078125 2.984375 C 8.023438 2.984375 7.101562 2.742188 6.3125 2.265625 C 5.519531 1.796875 4.90625 1.140625 4.46875 0.296875 C 4.03125 -0.546875 3.816406 -1.523438 3.828125 -2.640625 C 3.835938 -3.585938 4.003906 -4.566406 4.328125 -5.578125 C 4.660156 -6.585938 5.101562 -7.597656 5.65625 -8.609375 C 6.21875 -9.617188 6.863281 -10.601562 7.59375 -11.5625 C 8.332031 -12.519531 9.113281 -13.421875 9.9375 -14.265625 C 9.96875 -14.296875 9.988281 -14.335938 10 -14.390625 C 10.289062 -15.679688 10.765625 -16.882812 11.421875 -18 C 12.078125 -19.113281 12.863281 -20.125 13.78125 -21.03125 C 14.707031 -21.945312 15.707031 -22.734375 16.78125 -23.390625 C 17.863281 -24.046875 18.96875 -24.546875 20.09375 -24.890625 C 21.226562 -25.242188 22.34375 -25.421875 23.4375 -25.421875 C 24.5625 -25.421875 25.523438 -25.179688 26.328125 -24.703125 C 27.140625 -24.234375 27.757812 -23.570312 28.1875 -22.71875 C 28.625 -21.863281 28.832031 -20.84375 28.8125 -19.65625 C 28.78125 -18.46875 28.578125 -17.222656 28.203125 -15.921875 C 27.835938 -14.617188 27.332031 -13.304688 26.6875 -11.984375 C 26.039062 -10.671875 25.285156 -9.378906 24.421875 -8.109375 C 23.566406 -6.847656 22.628906 -5.648438 21.609375 -4.515625 L 21.859375 -4.515625 C 22.910156 -4.515625 24.078125 -4.59375 25.359375 -4.75 C 26.648438 -4.914062 28.023438 -5.21875 29.484375 -5.65625 C 30.941406 -6.09375 32.445312 -6.738281 34 -7.59375 C 34.09375 -7.632812 34.195312 -7.65625 34.3125 -7.65625 Z M 20 -4.625 C 21.039062 -5.738281 22.007812 -6.921875 22.90625 -8.171875 C 23.8125 -9.429688 24.609375 -10.71875 25.296875 -12.03125 C 25.984375 -13.351562 26.519531 -14.664062 26.90625 -15.96875 C 27.300781 -17.269531 27.507812 -18.507812 27.53125 -19.6875 C 27.550781 -21.09375 27.203125 -22.1875 26.484375 -22.96875 C 25.773438 -23.75 24.757812 -24.140625 23.4375 -24.140625 C 22.25 -24.140625 21.070312 -23.9375 19.90625 -23.53125 C 18.738281 -23.125 17.628906 -22.550781 16.578125 -21.8125 C 15.535156 -21.082031 14.601562 -20.222656 13.78125 -19.234375 C 12.96875 -18.242188 12.320312 -17.164062 11.84375 -16 C 13 -16.988281 14.140625 -17.785156 15.265625 -18.390625 C 16.390625 -18.992188 17.414062 -19.378906 18.34375 -19.546875 L 18.453125 -19.546875 C 18.617188 -19.546875 18.765625 -19.476562 18.890625 -19.34375 C 19.023438 -19.21875 19.09375 -19.078125 19.09375 -18.921875 C 19.09375 -18.765625 19.039062 -18.625 18.9375 -18.5 C 18.84375 -18.375 18.71875 -18.300781 18.5625 -18.28125 C 17.519531 -18.101562 16.359375 -17.625 15.078125 -16.84375 C 13.796875 -16.0625 12.507812 -15.050781 11.21875 -13.8125 C 11.195312 -13.789062 11.179688 -13.75 11.171875 -13.6875 C 11.117188 -13.363281 11.070312 -13.039062 11.03125 -12.71875 C 11 -12.394531 10.984375 -12.0625 10.984375 -11.71875 C 10.984375 -10.40625 11.335938 -9.242188 12.046875 -8.234375 C 12.765625 -7.222656 13.785156 -6.40625 15.109375 -5.78125 C 16.441406 -5.164062 18.039062 -4.773438 19.90625 -4.609375 C 19.957031 -4.609375 19.988281 -4.613281 20 -4.625 Z M 5.109375 -2.640625 C 5.097656 -1.753906 5.25 -0.984375 5.5625 -0.328125 C 5.882812 0.316406 6.347656 0.816406 6.953125 1.171875 C 7.554688 1.523438 8.265625 1.703125 9.078125 1.703125 C 9.992188 1.703125 10.984375 1.5 12.046875 1.09375 C 13.117188 0.695312 14.222656 0.113281 15.359375 -0.65625 C 16.503906 -1.425781 17.648438 -2.351562 18.796875 -3.4375 C 17.347656 -3.632812 16.101562 -3.953125 15.0625 -4.390625 C 14.03125 -4.835938 13.164062 -5.363281 12.46875 -5.96875 C 11.78125 -6.570312 11.234375 -7.210938 10.828125 -7.890625 C 10.429688 -8.566406 10.144531 -9.234375 9.96875 -9.890625 C 9.800781 -10.554688 9.71875 -11.164062 9.71875 -11.71875 L 9.71875 -12.234375 C 8.851562 -11.242188 8.070312 -10.195312 7.375 -9.09375 C 6.6875 -7.988281 6.140625 -6.890625 5.734375 -5.796875 C 5.328125 -4.710938 5.117188 -3.660156 5.109375 -2.640625 Z M 5.109375 -2.640625 "/></g></g></g><g fill="#1c7675" fill-opacity="1"><g transform="translate(99.637514, 275.360372)"><g><path d="M 1.03125 8.828125 C 0.269531 8.828125 -0.304688 8.628906 -0.703125 8.234375 C -1.109375 7.835938 -1.3125 7.28125 -1.3125 6.5625 C -1.3125 6 -1.148438 5.378906 -0.828125 4.703125 C -0.515625 4.035156 -0.0820312 3.332031 0.46875 2.59375 C 1.03125 1.851562 1.664062 1.085938 2.375 0.296875 C 3.082031 -0.484375 3.832031 -1.269531 4.625 -2.0625 C 5.414062 -2.863281 6.207031 -3.65625 7 -4.4375 C 7.875 -5.28125 8.703125 -6.097656 9.484375 -6.890625 C 10.273438 -7.691406 10.972656 -8.4375 11.578125 -9.125 C 12.191406 -9.820312 12.675781 -10.445312 13.03125 -11 C 13.382812 -11.550781 13.5625 -12.007812 13.5625 -12.375 C 13.5625 -12.613281 13.410156 -12.878906 13.109375 -13.171875 C 12.804688 -13.460938 12.289062 -13.851562 11.5625 -14.34375 C 10.582031 -13.320312 9.550781 -12.300781 8.46875 -11.28125 C 7.382812 -10.269531 6.300781 -9.3125 5.21875 -8.40625 C 4.144531 -7.507812 3.125 -6.71875 2.15625 -6.03125 C 2.0625 -5.945312 1.941406 -5.90625 1.796875 -5.90625 C 1.617188 -5.90625 1.46875 -5.96875 1.34375 -6.09375 C 1.21875 -6.21875 1.15625 -6.367188 1.15625 -6.546875 C 1.15625 -6.765625 1.25 -6.941406 1.4375 -7.078125 C 2.5 -7.816406 3.554688 -8.625 4.609375 -9.5 C 5.660156 -10.382812 6.6875 -11.296875 7.6875 -12.234375 C 8.6875 -13.179688 9.628906 -14.113281 10.515625 -15.03125 C 9.691406 -15.570312 9.125 -16.007812 8.8125 -16.34375 C 8.5 -16.6875 8.34375 -17.03125 8.34375 -17.375 C 8.34375 -17.71875 8.484375 -18.109375 8.765625 -18.546875 C 9.054688 -18.984375 9.4375 -19.441406 9.90625 -19.921875 C 10.382812 -20.398438 10.914062 -20.863281 11.5 -21.3125 C 12.082031 -21.769531 12.679688 -22.175781 13.296875 -22.53125 C 13.921875 -22.894531 14.519531 -23.1875 15.09375 -23.40625 C 15.664062 -23.625 16.164062 -23.734375 16.59375 -23.734375 C 16.9375 -23.734375 17.203125 -23.632812 17.390625 -23.4375 C 17.585938 -23.238281 17.6875 -22.960938 17.6875 -22.609375 C 17.6875 -22.234375 17.476562 -21.691406 17.0625 -20.984375 C 16.65625 -20.285156 16.054688 -19.453125 15.265625 -18.484375 C 14.484375 -17.515625 13.539062 -16.441406 12.4375 -15.265625 C 12.570312 -15.128906 12.707031 -15 12.84375 -14.875 C 12.988281 -14.757812 13.128906 -14.644531 13.265625 -14.53125 C 13.710938 -14.132812 14.085938 -13.769531 14.390625 -13.4375 C 14.691406 -13.101562 14.84375 -12.75 14.84375 -12.375 C 14.84375 -11.863281 14.644531 -11.273438 14.25 -10.609375 C 13.863281 -9.953125 13.335938 -9.238281 12.671875 -8.46875 C 12.015625 -7.707031 11.273438 -6.90625 10.453125 -6.0625 C 9.628906 -5.21875 8.78125 -4.375 7.90625 -3.53125 C 6.925781 -2.5625 5.960938 -1.597656 5.015625 -0.640625 C 4.066406 0.316406 3.210938 1.234375 2.453125 2.109375 C 1.691406 2.992188 1.085938 3.8125 0.640625 4.5625 C 0.191406 5.320312 -0.03125 5.988281 -0.03125 6.5625 C -0.03125 6.925781 0.0390625 7.179688 0.1875 7.328125 C 0.34375 7.472656 0.625 7.546875 1.03125 7.546875 C 1.675781 7.546875 2.488281 7.378906 3.46875 7.046875 C 4.457031 6.722656 5.566406 6.265625 6.796875 5.671875 C 8.023438 5.078125 9.328125 4.390625 10.703125 3.609375 C 12.085938 2.835938 13.503906 2.003906 14.953125 1.109375 C 16.410156 0.210938 17.859375 -0.703125 19.296875 -1.640625 C 20.742188 -2.585938 22.132812 -3.519531 23.46875 -4.4375 C 24.800781 -5.363281 26.039062 -6.242188 27.1875 -7.078125 C 27.28125 -7.160156 27.40625 -7.203125 27.5625 -7.203125 C 27.738281 -7.203125 27.890625 -7.140625 28.015625 -7.015625 C 28.140625 -6.890625 28.203125 -6.738281 28.203125 -6.5625 C 28.203125 -6.332031 28.113281 -6.160156 27.9375 -6.046875 C 26.789062 -5.210938 25.539062 -4.328125 24.1875 -3.390625 C 22.832031 -2.460938 21.421875 -1.515625 19.953125 -0.546875 C 18.492188 0.410156 17.019531 1.34375 15.53125 2.25 C 14.039062 3.15625 12.582031 4.003906 11.15625 4.796875 C 9.726562 5.585938 8.375 6.285156 7.09375 6.890625 C 5.820312 7.492188 4.664062 7.96875 3.625 8.3125 C 2.59375 8.65625 1.726562 8.828125 1.03125 8.828125 Z M 11.375 -15.96875 C 11.800781 -16.414062 12.269531 -16.925781 12.78125 -17.5 C 13.289062 -18.082031 13.789062 -18.671875 14.28125 -19.265625 C 14.769531 -19.867188 15.191406 -20.421875 15.546875 -20.921875 C 15.910156 -21.429688 16.148438 -21.828125 16.265625 -22.109375 C 16.304688 -22.210938 16.296875 -22.285156 16.234375 -22.328125 C 16.179688 -22.378906 16.09375 -22.394531 15.96875 -22.375 C 15.664062 -22.3125 15.296875 -22.171875 14.859375 -21.953125 C 14.429688 -21.734375 13.976562 -21.46875 13.5 -21.15625 C 13.03125 -20.84375 12.566406 -20.507812 12.109375 -20.15625 C 11.648438 -19.800781 11.234375 -19.445312 10.859375 -19.09375 C 10.484375 -18.738281 10.179688 -18.410156 9.953125 -18.109375 C 9.734375 -17.804688 9.625 -17.5625 9.625 -17.375 C 9.625 -17.226562 10.207031 -16.757812 11.375 -15.96875 Z M 11.375 -15.96875 "/></g></g></g><g fill="#1c7675" fill-opacity="1"><g transform="translate(125.376969, 275.360372)"><g><path d="M 32.640625 -18.71875 C 32.816406 -18.707031 32.960938 -18.640625 33.078125 -18.515625 C 33.191406 -18.390625 33.25 -18.242188 33.25 -18.078125 C 33.25 -17.898438 33.1875 -17.75 33.0625 -17.625 C 32.945312 -17.5 32.800781 -17.4375 32.625 -17.4375 L 32.578125 -17.4375 C 29.242188 -17.570312 25.820312 -17.640625 22.3125 -17.640625 C 18.800781 -17.640625 15.28125 -17.5625 11.75 -17.40625 C 8.457031 -13.539062 5.210938 -9.601562 2.015625 -5.59375 C -1.179688 -1.582031 -4.25 2.441406 -7.1875 6.484375 C -10.132812 10.523438 -12.882812 14.539062 -15.4375 18.53125 C -15.332031 18.6875 -15.359375 18.910156 -15.515625 19.203125 C -16.054688 20.109375 -16.539062 20.5625 -16.96875 20.5625 C -17.25 20.5625 -17.441406 20.472656 -17.546875 20.296875 C -17.648438 20.128906 -17.65625 19.898438 -17.5625 19.609375 L -17.5625 19.59375 C -17.5 19.382812 -17.390625 19.171875 -17.234375 18.953125 C -14.691406 14.929688 -11.945312 10.878906 -9 6.796875 C -6.0625 2.722656 -2.988281 -1.335938 0.21875 -5.390625 C 3.425781 -9.441406 6.691406 -13.425781 10.015625 -17.34375 C 6.660156 -17.1875 3.367188 -16.972656 0.140625 -16.703125 C -3.078125 -16.429688 -6.148438 -16.101562 -9.078125 -15.71875 L -9.171875 -15.71875 C -9.347656 -15.71875 -9.492188 -15.78125 -9.609375 -15.90625 C -9.734375 -16.03125 -9.796875 -16.179688 -9.796875 -16.359375 C -9.796875 -16.523438 -9.738281 -16.671875 -9.625 -16.796875 C -9.519531 -16.921875 -9.390625 -16.988281 -9.234375 -17 C -6.085938 -17.40625 -2.796875 -17.742188 0.640625 -18.015625 C 4.078125 -18.296875 7.570312 -18.515625 11.125 -18.671875 C 13.28125 -21.171875 15.484375 -23.691406 17.734375 -26.234375 C 19.992188 -28.773438 22.3125 -31.328125 24.6875 -33.890625 C 24.800781 -34.035156 24.957031 -34.109375 25.15625 -34.109375 C 25.332031 -34.109375 25.484375 -34.046875 25.609375 -33.921875 C 25.734375 -33.796875 25.796875 -33.644531 25.796875 -33.46875 C 25.796875 -33.289062 25.734375 -33.148438 25.609375 -33.046875 C 23.523438 -30.765625 21.414062 -28.425781 19.28125 -26.03125 C 17.144531 -23.632812 15.007812 -21.203125 12.875 -18.734375 C 16.15625 -18.859375 19.457031 -18.921875 22.78125 -18.921875 C 26.113281 -18.921875 29.398438 -18.851562 32.640625 -18.71875 Z M 32.640625 -18.71875 "/></g></g></g><g fill="#1c7675" fill-opacity="1"><g transform="translate(137.360351, 275.360372)"><g><path d="M 27.203125 -7.203125 C 27.367188 -7.203125 27.515625 -7.132812 27.640625 -7 C 27.773438 -6.875 27.84375 -6.726562 27.84375 -6.5625 C 27.84375 -6.332031 27.75 -6.15625 27.5625 -6.03125 C 26.851562 -5.582031 26.054688 -5.101562 25.171875 -4.59375 C 24.285156 -4.09375 23.351562 -3.597656 22.375 -3.109375 C 21.394531 -2.617188 20.398438 -2.148438 19.390625 -1.703125 C 18.390625 -1.265625 17.410156 -0.875 16.453125 -0.53125 C 15.492188 -0.1875 14.597656 0.078125 13.765625 0.265625 C 12.929688 0.460938 12.203125 0.5625 11.578125 0.5625 C 10.679688 0.5625 9.976562 0.34375 9.46875 -0.09375 C 8.96875 -0.53125 8.71875 -1.140625 8.71875 -1.921875 C 8.71875 -2.367188 8.804688 -2.847656 8.984375 -3.359375 C 9.160156 -3.878906 9.34375 -4.378906 9.53125 -4.859375 C 9.6875 -5.234375 9.820312 -5.585938 9.9375 -5.921875 C 10.0625 -6.253906 10.144531 -6.566406 10.1875 -6.859375 C 10.21875 -6.992188 10.195312 -7.085938 10.125 -7.140625 C 10.0625 -7.203125 9.972656 -7.222656 9.859375 -7.203125 C 9.109375 -7.023438 8.015625 -6.390625 6.578125 -5.296875 C 5.148438 -4.210938 3.457031 -2.75 1.5 -0.90625 C 0.945312 -0.375 0.410156 0.132812 -0.109375 0.625 C -0.628906 1.125 -1.113281 1.601562 -1.5625 2.0625 C -1.675781 2.175781 -1.789062 2.285156 -1.90625 2.390625 C -2.03125 2.492188 -2.144531 2.601562 -2.25 2.71875 C -2.882812 3.351562 -3.375 3.832031 -3.71875 4.15625 C -4.0625 4.476562 -4.3125 4.695312 -4.46875 4.8125 C -4.632812 4.925781 -4.78125 4.984375 -4.90625 4.984375 C -5.132812 4.984375 -5.328125 4.898438 -5.484375 4.734375 C -5.640625 4.578125 -5.71875 4.390625 -5.71875 4.171875 C -5.71875 3.742188 -5.488281 3.09375 -5.03125 2.21875 C -4.570312 1.34375 -3.925781 0.289062 -3.09375 -0.9375 C -2.257812 -2.164062 -1.273438 -3.523438 -0.140625 -5.015625 C 0.992188 -6.515625 2.238281 -8.101562 3.59375 -9.78125 C 4.957031 -11.457031 6.390625 -13.179688 7.890625 -14.953125 C 9.390625 -16.734375 10.925781 -18.507812 12.5 -20.28125 C 14.070312 -22.0625 15.640625 -23.800781 17.203125 -25.5 C 18.765625 -27.207031 20.285156 -28.828125 21.765625 -30.359375 C 23.253906 -31.898438 24.660156 -33.3125 25.984375 -34.59375 C 27.304688 -35.875 28.507812 -36.988281 29.59375 -37.9375 C 30.6875 -38.882812 31.617188 -39.613281 32.390625 -40.125 C 33.171875 -40.644531 33.75 -40.90625 34.125 -40.90625 C 34.625 -40.90625 35.007812 -40.78125 35.28125 -40.53125 C 35.550781 -40.28125 35.6875 -39.914062 35.6875 -39.4375 C 35.6875 -38.914062 35.445312 -38.191406 34.96875 -37.265625 C 34.488281 -36.335938 33.796875 -35.253906 32.890625 -34.015625 C 31.992188 -32.773438 30.914062 -31.414062 29.65625 -29.9375 C 28.40625 -28.457031 27 -26.910156 25.4375 -25.296875 C 23.882812 -23.679688 22.210938 -22.03125 20.421875 -20.34375 C 18.640625 -18.65625 16.765625 -16.976562 14.796875 -15.3125 C 12.828125 -13.65625 10.796875 -12.050781 8.703125 -10.5 C 6.609375 -8.945312 4.488281 -7.492188 2.34375 -6.140625 C 1.050781 -4.492188 -0.0703125 -3.015625 -1.03125 -1.703125 C -1.988281 -0.390625 -2.75 0.734375 -3.3125 1.671875 C -3.4375 1.859375 -3.46875 1.957031 -3.40625 1.96875 C -3.34375 1.976562 -3.253906 1.925781 -3.140625 1.8125 C -2.617188 1.300781 -2.035156 0.734375 -1.390625 0.109375 C -0.742188 -0.515625 -0.0703125 -1.160156 0.625 -1.828125 C 3.019531 -4.085938 5.003906 -5.769531 6.578125 -6.875 C 8.160156 -7.976562 9.367188 -8.53125 10.203125 -8.53125 C 10.609375 -8.53125 10.925781 -8.40625 11.15625 -8.15625 C 11.382812 -7.914062 11.5 -7.585938 11.5 -7.171875 C 11.5 -6.753906 11.410156 -6.296875 11.234375 -5.796875 C 11.066406 -5.304688 10.890625 -4.828125 10.703125 -4.359375 C 10.515625 -3.890625 10.347656 -3.445312 10.203125 -3.03125 C 10.066406 -2.613281 10 -2.242188 10 -1.921875 C 10 -1.503906 10.125 -1.195312 10.375 -1 C 10.632812 -0.800781 11.035156 -0.703125 11.578125 -0.703125 C 12.148438 -0.703125 12.828125 -0.796875 13.609375 -0.984375 C 14.398438 -1.179688 15.25 -1.441406 16.15625 -1.765625 C 17.070312 -2.097656 18.007812 -2.476562 18.96875 -2.90625 C 19.9375 -3.332031 20.890625 -3.785156 21.828125 -4.265625 C 22.773438 -4.742188 23.679688 -5.222656 24.546875 -5.703125 C 25.410156 -6.191406 26.1875 -6.660156 26.875 -7.109375 C 27.019531 -7.171875 27.128906 -7.203125 27.203125 -7.203125 Z M 34.125 -39.640625 C 33.800781 -39.640625 33.242188 -39.34375 32.453125 -38.75 C 31.660156 -38.15625 30.671875 -37.316406 29.484375 -36.234375 C 28.304688 -35.148438 26.984375 -33.867188 25.515625 -32.390625 C 24.046875 -30.910156 22.472656 -29.273438 20.796875 -27.484375 C 19.128906 -25.703125 17.398438 -23.816406 15.609375 -21.828125 C 13.828125 -19.835938 12.035156 -17.789062 10.234375 -15.6875 C 8.429688 -13.59375 6.671875 -11.488281 4.953125 -9.375 C 7.191406 -10.925781 9.378906 -12.554688 11.515625 -14.265625 C 13.648438 -15.984375 15.691406 -17.722656 17.640625 -19.484375 C 19.597656 -21.242188 21.425781 -22.976562 23.125 -24.6875 C 24.832031 -26.40625 26.375 -28.039062 27.75 -29.59375 C 29.132812 -31.144531 30.320312 -32.570312 31.3125 -33.875 C 32.3125 -35.175781 33.078125 -36.300781 33.609375 -37.25 C 34.140625 -38.207031 34.40625 -38.921875 34.40625 -39.390625 C 34.40625 -39.554688 34.3125 -39.640625 34.125 -39.640625 Z M 34.125 -39.640625 "/></g></g></g><g fill="#1c7675" fill-opacity="1"><g transform="translate(162.745268, 275.360372)"><g><path d="M 19.15625 -7.203125 C 19.320312 -7.203125 19.46875 -7.132812 19.59375 -7 C 19.726562 -6.875 19.796875 -6.726562 19.796875 -6.5625 C 19.796875 -6.3125 19.6875 -6.117188 19.46875 -5.984375 C 18.414062 -5.390625 17.253906 -4.960938 15.984375 -4.703125 C 14.722656 -4.441406 13.414062 -4.347656 12.0625 -4.421875 C 10.71875 -4.492188 9.382812 -4.734375 8.0625 -5.140625 C 6.738281 -5.546875 5.484375 -6.109375 4.296875 -6.828125 C 4.367188 -6.160156 4.335938 -5.46875 4.203125 -4.75 C 4.066406 -4.039062 3.84375 -3.351562 3.53125 -2.6875 C 3.21875 -2.019531 2.84375 -1.421875 2.40625 -0.890625 C 1.976562 -0.359375 1.515625 0.0625 1.015625 0.375 C 0.523438 0.6875 0.0195312 0.84375 -0.5 0.84375 C -1.007812 0.84375 -1.421875 0.65625 -1.734375 0.28125 C -2.046875 -0.0820312 -2.203125 -0.570312 -2.203125 -1.1875 C -2.203125 -1.925781 -1.988281 -2.703125 -1.5625 -3.515625 C -1.144531 -4.335938 -0.566406 -5.132812 0.171875 -5.90625 C 0.921875 -6.675781 1.78125 -7.347656 2.75 -7.921875 C 2.78125 -7.960938 2.8125 -8 2.84375 -8.03125 C 2.894531 -8.238281 3.019531 -8.394531 3.21875 -8.5 C 3.425781 -8.613281 3.632812 -8.640625 3.84375 -8.578125 C 3.90625 -8.566406 3.953125 -8.566406 3.984375 -8.578125 C 4.160156 -8.671875 4.347656 -8.753906 4.546875 -8.828125 C 4.742188 -8.898438 4.941406 -8.972656 5.140625 -9.046875 C 5.234375 -9.066406 5.304688 -9.078125 5.359375 -9.078125 C 5.523438 -9.078125 5.671875 -9.007812 5.796875 -8.875 C 5.921875 -8.75 5.984375 -8.601562 5.984375 -8.4375 C 5.984375 -8.113281 5.835938 -7.90625 5.546875 -7.8125 C 5.515625 -7.800781 5.476562 -7.789062 5.4375 -7.78125 C 5.40625 -7.78125 5.367188 -7.769531 5.328125 -7.75 C 5.316406 -7.75 5.304688 -7.742188 5.296875 -7.734375 C 6.367188 -7.117188 7.5 -6.640625 8.6875 -6.296875 C 9.882812 -5.953125 11.082031 -5.75 12.28125 -5.6875 C 13.488281 -5.632812 14.648438 -5.722656 15.765625 -5.953125 C 16.878906 -6.179688 17.90625 -6.5625 18.84375 -7.09375 C 18.9375 -7.164062 19.039062 -7.203125 19.15625 -7.203125 Z M -0.5 -0.421875 C -0.15625 -0.421875 0.191406 -0.550781 0.546875 -0.8125 C 0.910156 -1.070312 1.253906 -1.421875 1.578125 -1.859375 C 1.898438 -2.296875 2.175781 -2.785156 2.40625 -3.328125 C 2.644531 -3.867188 2.820312 -4.421875 2.9375 -4.984375 C 3.0625 -5.554688 3.09375 -6.097656 3.03125 -6.609375 C 2.25 -6.097656 1.5625 -5.53125 0.96875 -4.90625 C 0.382812 -4.28125 -0.0703125 -3.644531 -0.40625 -3 C -0.75 -2.351562 -0.921875 -1.75 -0.921875 -1.1875 C -0.921875 -0.675781 -0.78125 -0.421875 -0.5 -0.421875 Z M -0.5 -0.421875 "/></g></g></g><g fill="#1c7675" fill-opacity="1"><g transform="translate(180.0999, 275.360372)"><g><path d="M 23.546875 -7.21875 C 23.722656 -7.21875 23.867188 -7.15625 23.984375 -7.03125 C 24.109375 -6.90625 24.171875 -6.753906 24.171875 -6.578125 C 24.171875 -6.347656 24.070312 -6.164062 23.875 -6.03125 C 22.78125 -5.28125 21.628906 -4.582031 20.421875 -3.9375 C 19.222656 -3.300781 18.023438 -2.722656 16.828125 -2.203125 C 15.628906 -1.691406 14.476562 -1.253906 13.375 -0.890625 C 12.28125 -0.535156 11.28125 -0.257812 10.375 -0.0625 C 9.46875 0.132812 8.707031 0.234375 8.09375 0.234375 C 7.101562 0.234375 6.34375 0.015625 5.8125 -0.421875 C 5.289062 -0.859375 5.03125 -1.492188 5.03125 -2.328125 C 5.03125 -2.941406 5.445312 -3.96875 6.28125 -5.40625 C 6.375 -5.570312 6.382812 -5.675781 6.3125 -5.71875 C 6.25 -5.757812 6.15625 -5.710938 6.03125 -5.578125 C 3.925781 -3.722656 2.234375 -2.3125 0.953125 -1.34375 C -0.316406 -0.382812 -1.160156 0.09375 -1.578125 0.09375 C -2.003906 0.09375 -2.335938 -0.015625 -2.578125 -0.234375 C -2.828125 -0.460938 -2.953125 -0.773438 -2.953125 -1.171875 C -2.953125 -1.691406 -2.804688 -2.242188 -2.515625 -2.828125 C -2.234375 -3.421875 -1.84375 -4.015625 -1.34375 -4.609375 C -0.851562 -5.203125 -0.289062 -5.765625 0.34375 -6.296875 C 0.976562 -6.828125 1.644531 -7.300781 2.34375 -7.71875 C 3.050781 -8.132812 3.75 -8.460938 4.4375 -8.703125 C 5.132812 -8.953125 5.789062 -9.078125 6.40625 -9.078125 C 6.851562 -9.078125 7.289062 -8.992188 7.71875 -8.828125 C 8.039062 -9.128906 8.378906 -9.445312 8.734375 -9.78125 C 9.085938 -10.113281 9.453125 -10.453125 9.828125 -10.796875 L 9.78125 -10.78125 C 10.820312 -12.226562 11.972656 -13.773438 13.234375 -15.421875 C 14.492188 -17.066406 15.816406 -18.742188 17.203125 -20.453125 C 18.585938 -22.171875 20 -23.875 21.4375 -25.5625 C 22.875 -27.25 24.289062 -28.867188 25.6875 -30.421875 C 27.082031 -31.984375 28.414062 -33.425781 29.6875 -34.75 C 30.96875 -36.070312 32.132812 -37.226562 33.1875 -38.21875 C 34.25 -39.207031 35.160156 -39.976562 35.921875 -40.53125 C 36.679688 -41.082031 37.253906 -41.359375 37.640625 -41.359375 C 38.523438 -41.359375 38.96875 -40.953125 38.96875 -40.140625 C 38.96875 -39.859375 38.722656 -39.363281 38.234375 -38.65625 C 37.753906 -37.945312 37.078125 -37.066406 36.203125 -36.015625 C 35.328125 -34.960938 34.296875 -33.773438 33.109375 -32.453125 C 31.921875 -31.140625 30.613281 -29.734375 29.1875 -28.234375 C 27.769531 -26.742188 26.28125 -25.203125 24.71875 -23.609375 C 23.164062 -22.015625 21.578125 -20.410156 19.953125 -18.796875 C 18.328125 -17.179688 16.710938 -15.597656 15.109375 -14.046875 C 13.503906 -12.503906 11.953125 -11.035156 10.453125 -9.640625 C 10.191406 -9.273438 9.941406 -8.914062 9.703125 -8.5625 C 9.472656 -8.21875 9.242188 -7.882812 9.015625 -7.5625 C 9.117188 -7.375 9.179688 -7.175781 9.203125 -6.96875 C 9.234375 -6.769531 9.238281 -6.566406 9.21875 -6.359375 C 9.207031 -6.191406 9.140625 -6.050781 9.015625 -5.9375 C 8.890625 -5.820312 8.742188 -5.765625 8.578125 -5.765625 C 8.335938 -5.765625 8.160156 -5.859375 8.046875 -6.046875 C 6.890625 -4.179688 6.3125 -2.941406 6.3125 -2.328125 C 6.3125 -1.878906 6.445312 -1.550781 6.71875 -1.34375 C 6.988281 -1.144531 7.445312 -1.046875 8.09375 -1.046875 C 8.664062 -1.046875 9.378906 -1.140625 10.234375 -1.328125 C 11.085938 -1.515625 12.039062 -1.78125 13.09375 -2.125 C 14.144531 -2.476562 15.242188 -2.898438 16.390625 -3.390625 C 17.535156 -3.890625 18.6875 -4.453125 19.84375 -5.078125 C 21.007812 -5.710938 22.125 -6.390625 23.1875 -7.109375 C 23.28125 -7.179688 23.398438 -7.21875 23.546875 -7.21875 Z M 37.640625 -40.078125 C 37.390625 -40.078125 36.957031 -39.84375 36.34375 -39.375 C 35.726562 -38.914062 34.96875 -38.253906 34.0625 -37.390625 C 33.15625 -36.523438 32.132812 -35.503906 31 -34.328125 C 29.875 -33.160156 28.671875 -31.867188 27.390625 -30.453125 C 26.117188 -29.035156 24.800781 -27.535156 23.4375 -25.953125 C 22.070312 -24.367188 20.695312 -22.738281 19.3125 -21.0625 C 17.9375 -19.382812 16.585938 -17.695312 15.265625 -16 C 16.015625 -16.738281 16.863281 -17.578125 17.8125 -18.515625 C 18.757812 -19.453125 19.765625 -20.457031 20.828125 -21.53125 C 21.890625 -22.613281 22.972656 -23.722656 24.078125 -24.859375 C 25.191406 -26.003906 26.300781 -27.144531 27.40625 -28.28125 C 28.519531 -29.425781 29.582031 -30.535156 30.59375 -31.609375 C 31.601562 -32.679688 32.539062 -33.691406 33.40625 -34.640625 C 34.269531 -35.585938 35.023438 -36.4375 35.671875 -37.1875 C 36.316406 -37.9375 36.816406 -38.550781 37.171875 -39.03125 C 37.535156 -39.519531 37.71875 -39.835938 37.71875 -39.984375 C 37.71875 -40.046875 37.691406 -40.078125 37.640625 -40.078125 Z M -1.5 -1.1875 C -1.238281 -1.1875 -0.40625 -1.757812 1 -2.90625 C 2.40625 -4.050781 4.265625 -5.679688 6.578125 -7.796875 L 6.40625 -7.796875 C 5.914062 -7.796875 5.375 -7.6875 4.78125 -7.46875 C 4.195312 -7.257812 3.601562 -6.972656 3 -6.609375 C 2.394531 -6.253906 1.8125 -5.851562 1.25 -5.40625 C 0.695312 -4.957031 0.203125 -4.488281 -0.234375 -4 C -0.679688 -3.519531 -1.035156 -3.046875 -1.296875 -2.578125 C -1.554688 -2.117188 -1.6875 -1.707031 -1.6875 -1.34375 C -1.6875 -1.238281 -1.625 -1.1875 -1.5 -1.1875 Z M -1.5 -1.1875 "/></g></g></g><g fill="#1c7675" fill-opacity="1"><g transform="translate(201.815349, 275.360372)"><g><path d="M 19.15625 -7.203125 C 19.320312 -7.203125 19.46875 -7.132812 19.59375 -7 C 19.726562 -6.875 19.796875 -6.726562 19.796875 -6.5625 C 19.796875 -6.3125 19.6875 -6.117188 19.46875 -5.984375 C 18.414062 -5.390625 17.253906 -4.960938 15.984375 -4.703125 C 14.722656 -4.441406 13.414062 -4.347656 12.0625 -4.421875 C 10.71875 -4.492188 9.382812 -4.734375 8.0625 -5.140625 C 6.738281 -5.546875 5.484375 -6.109375 4.296875 -6.828125 C 4.367188 -6.160156 4.335938 -5.46875 4.203125 -4.75 C 4.066406 -4.039062 3.84375 -3.351562 3.53125 -2.6875 C 3.21875 -2.019531 2.84375 -1.421875 2.40625 -0.890625 C 1.976562 -0.359375 1.515625 0.0625 1.015625 0.375 C 0.523438 0.6875 0.0195312 0.84375 -0.5 0.84375 C -1.007812 0.84375 -1.421875 0.65625 -1.734375 0.28125 C -2.046875 -0.0820312 -2.203125 -0.570312 -2.203125 -1.1875 C -2.203125 -1.925781 -1.988281 -2.703125 -1.5625 -3.515625 C -1.144531 -4.335938 -0.566406 -5.132812 0.171875 -5.90625 C 0.921875 -6.675781 1.78125 -7.347656 2.75 -7.921875 C 2.78125 -7.960938 2.8125 -8 2.84375 -8.03125 C 2.894531 -8.238281 3.019531 -8.394531 3.21875 -8.5 C 3.425781 -8.613281 3.632812 -8.640625 3.84375 -8.578125 C 3.90625 -8.566406 3.953125 -8.566406 3.984375 -8.578125 C 4.160156 -8.671875 4.347656 -8.753906 4.546875 -8.828125 C 4.742188 -8.898438 4.941406 -8.972656 5.140625 -9.046875 C 5.234375 -9.066406 5.304688 -9.078125 5.359375 -9.078125 C 5.523438 -9.078125 5.671875 -9.007812 5.796875 -8.875 C 5.921875 -8.75 5.984375 -8.601562 5.984375 -8.4375 C 5.984375 -8.113281 5.835938 -7.90625 5.546875 -7.8125 C 5.515625 -7.800781 5.476562 -7.789062 5.4375 -7.78125 C 5.40625 -7.78125 5.367188 -7.769531 5.328125 -7.75 C 5.316406 -7.75 5.304688 -7.742188 5.296875 -7.734375 C 6.367188 -7.117188 7.5 -6.640625 8.6875 -6.296875 C 9.882812 -5.953125 11.082031 -5.75 12.28125 -5.6875 C 13.488281 -5.632812 14.648438 -5.722656 15.765625 -5.953125 C 16.878906 -6.179688 17.90625 -6.5625 18.84375 -7.09375 C 18.9375 -7.164062 19.039062 -7.203125 19.15625 -7.203125 Z M -0.5 -0.421875 C -0.15625 -0.421875 0.191406 -0.550781 0.546875 -0.8125 C 0.910156 -1.070312 1.253906 -1.421875 1.578125 -1.859375 C 1.898438 -2.296875 2.175781 -2.785156 2.40625 -3.328125 C 2.644531 -3.867188 2.820312 -4.421875 2.9375 -4.984375 C 3.0625 -5.554688 3.09375 -6.097656 3.03125 -6.609375 C 2.25 -6.097656 1.5625 -5.53125 0.96875 -4.90625 C 0.382812 -4.28125 -0.0703125 -3.644531 -0.40625 -3 C -0.75 -2.351562 -0.921875 -1.75 -0.921875 -1.1875 C -0.921875 -0.675781 -0.78125 -0.421875 -0.5 -0.421875 Z M -0.5 -0.421875 "/></g></g></g><g fill="#1c7675" fill-opacity="1"><g transform="translate(219.169981, 275.360372)"><g><path d="M -2.25 0.140625 C -2.519531 0.140625 -2.734375 0.0390625 -2.890625 -0.15625 C -3.046875 -0.351562 -3.09375 -0.597656 -3.03125 -0.890625 C -3 -1.078125 -2.832031 -1.40625 -2.53125 -1.875 C -2.238281 -2.34375 -1.847656 -2.910156 -1.359375 -3.578125 C -0.867188 -4.242188 -0.304688 -4.960938 0.328125 -5.734375 C 0.972656 -6.515625 1.664062 -7.304688 2.40625 -8.109375 C 3.144531 -8.921875 3.90625 -9.695312 4.6875 -10.4375 C 5.476562 -11.1875 6.257812 -11.851562 7.03125 -12.4375 C 7.164062 -12.519531 7.296875 -12.5625 7.421875 -12.5625 C 7.597656 -12.5625 7.75 -12.5 7.875 -12.375 C 8 -12.257812 8.0625 -12.113281 8.0625 -11.9375 C 8.0625 -11.71875 7.976562 -11.546875 7.8125 -11.421875 C 7.007812 -10.816406 6.207031 -10.132812 5.40625 -9.375 C 4.613281 -8.625 3.851562 -7.851562 3.125 -7.0625 C 2.394531 -6.269531 1.738281 -5.515625 1.15625 -4.796875 C 0.570312 -4.078125 0.09375 -3.457031 -0.28125 -2.9375 C -0.351562 -2.84375 -0.367188 -2.769531 -0.328125 -2.71875 C -0.296875 -2.675781 -0.21875 -2.695312 -0.09375 -2.78125 C 2 -4.28125 3.804688 -5.503906 5.328125 -6.453125 C 6.847656 -7.410156 8.132812 -8.113281 9.1875 -8.5625 C 10.25 -9.019531 11.109375 -9.25 11.765625 -9.25 C 12.234375 -9.25 12.597656 -9.132812 12.859375 -8.90625 C 13.128906 -8.675781 13.265625 -8.351562 13.265625 -7.9375 C 13.265625 -7.570312 13.195312 -7.085938 13.0625 -6.484375 C 12.9375 -5.878906 12.800781 -5.285156 12.65625 -4.703125 C 12.539062 -4.191406 12.4375 -3.722656 12.34375 -3.296875 C 12.25 -2.878906 12.203125 -2.582031 12.203125 -2.40625 C 12.203125 -2.238281 12.25 -2.117188 12.34375 -2.046875 C 12.445312 -1.984375 12.628906 -1.953125 12.890625 -1.953125 C 13.554688 -1.953125 14.34375 -2.070312 15.25 -2.3125 C 16.164062 -2.550781 17.164062 -2.894531 18.25 -3.34375 C 19.332031 -3.800781 20.460938 -4.34375 21.640625 -4.96875 C 22.816406 -5.601562 23.992188 -6.3125 25.171875 -7.09375 C 25.273438 -7.164062 25.394531 -7.203125 25.53125 -7.203125 C 25.707031 -7.203125 25.859375 -7.140625 25.984375 -7.015625 C 26.109375 -6.890625 26.171875 -6.738281 26.171875 -6.5625 C 26.171875 -6.3125 26.066406 -6.132812 25.859375 -6.03125 C 24.617188 -5.207031 23.382812 -4.460938 22.15625 -3.796875 C 20.925781 -3.140625 19.742188 -2.578125 18.609375 -2.109375 C 17.472656 -1.648438 16.414062 -1.296875 15.4375 -1.046875 C 14.46875 -0.796875 13.617188 -0.671875 12.890625 -0.671875 C 12.273438 -0.671875 11.789062 -0.820312 11.4375 -1.125 C 11.09375 -1.4375 10.921875 -1.863281 10.921875 -2.40625 C 10.921875 -2.65625 10.972656 -3.019531 11.078125 -3.5 C 11.179688 -3.976562 11.296875 -4.476562 11.421875 -5 C 11.554688 -5.59375 11.679688 -6.148438 11.796875 -6.671875 C 11.921875 -7.203125 11.984375 -7.539062 11.984375 -7.6875 C 11.984375 -7.882812 11.890625 -7.984375 11.703125 -7.984375 C 11.296875 -7.984375 10.796875 -7.863281 10.203125 -7.625 C 9.617188 -7.394531 8.972656 -7.085938 8.265625 -6.703125 C 7.554688 -6.328125 6.816406 -5.898438 6.046875 -5.421875 C 5.285156 -4.941406 4.53125 -4.445312 3.78125 -3.9375 C 3.03125 -3.425781 2.316406 -2.929688 1.640625 -2.453125 C 0.972656 -1.972656 0.378906 -1.546875 -0.140625 -1.171875 C -0.222656 -1.109375 -0.300781 -1.050781 -0.375 -1 C -0.457031 -0.945312 -0.535156 -0.890625 -0.609375 -0.828125 C -1.109375 -0.453125 -1.472656 -0.195312 -1.703125 -0.0625 C -1.941406 0.0703125 -2.125 0.140625 -2.25 0.140625 Z M -2.25 0.140625 "/></g></g></g><g fill="#1c7675" fill-opacity="1"><g transform="translate(242.870843, 275.360372)"><g><path d="M 32.640625 -18.71875 C 32.816406 -18.707031 32.960938 -18.640625 33.078125 -18.515625 C 33.191406 -18.390625 33.25 -18.242188 33.25 -18.078125 C 33.25 -17.898438 33.1875 -17.75 33.0625 -17.625 C 32.945312 -17.5 32.800781 -17.4375 32.625 -17.4375 L 32.578125 -17.4375 C 29.242188 -17.570312 25.820312 -17.640625 22.3125 -17.640625 C 18.800781 -17.640625 15.28125 -17.5625 11.75 -17.40625 C 8.457031 -13.539062 5.210938 -9.601562 2.015625 -5.59375 C -1.179688 -1.582031 -4.25 2.441406 -7.1875 6.484375 C -10.132812 10.523438 -12.882812 14.539062 -15.4375 18.53125 C -15.332031 18.6875 -15.359375 18.910156 -15.515625 19.203125 C -16.054688 20.109375 -16.539062 20.5625 -16.96875 20.5625 C -17.25 20.5625 -17.441406 20.472656 -17.546875 20.296875 C -17.648438 20.128906 -17.65625 19.898438 -17.5625 19.609375 L -17.5625 19.59375 C -17.5 19.382812 -17.390625 19.171875 -17.234375 18.953125 C -14.691406 14.929688 -11.945312 10.878906 -9 6.796875 C -6.0625 2.722656 -2.988281 -1.335938 0.21875 -5.390625 C 3.425781 -9.441406 6.691406 -13.425781 10.015625 -17.34375 C 6.660156 -17.1875 3.367188 -16.972656 0.140625 -16.703125 C -3.078125 -16.429688 -6.148438 -16.101562 -9.078125 -15.71875 L -9.171875 -15.71875 C -9.347656 -15.71875 -9.492188 -15.78125 -9.609375 -15.90625 C -9.734375 -16.03125 -9.796875 -16.179688 -9.796875 -16.359375 C -9.796875 -16.523438 -9.738281 -16.671875 -9.625 -16.796875 C -9.519531 -16.921875 -9.390625 -16.988281 -9.234375 -17 C -6.085938 -17.40625 -2.796875 -17.742188 0.640625 -18.015625 C 4.078125 -18.296875 7.570312 -18.515625 11.125 -18.671875 C 13.28125 -21.171875 15.484375 -23.691406 17.734375 -26.234375 C 19.992188 -28.773438 22.3125 -31.328125 24.6875 -33.890625 C 24.800781 -34.035156 24.957031 -34.109375 25.15625 -34.109375 C 25.332031 -34.109375 25.484375 -34.046875 25.609375 -33.921875 C 25.734375 -33.796875 25.796875 -33.644531 25.796875 -33.46875 C 25.796875 -33.289062 25.734375 -33.148438 25.609375 -33.046875 C 23.523438 -30.765625 21.414062 -28.425781 19.28125 -26.03125 C 17.144531 -23.632812 15.007812 -21.203125 12.875 -18.734375 C 16.15625 -18.859375 19.457031 -18.921875 22.78125 -18.921875 C 26.113281 -18.921875 29.398438 -18.851562 32.640625 -18.71875 Z M 32.640625 -18.71875 "/></g></g></g><g fill="#1c7675" fill-opacity="1"><g transform="translate(254.854225, 275.360372)"><g><path d="M 5.8125 -10.140625 C 5.632812 -10.140625 5.484375 -10.203125 5.359375 -10.328125 C 5.234375 -10.453125 5.171875 -10.601562 5.171875 -10.78125 C 5.171875 -10.914062 5.21875 -11.046875 5.3125 -11.171875 L 6.34375 -12.53125 C 6.476562 -12.6875 6.644531 -12.765625 6.84375 -12.765625 C 7.019531 -12.765625 7.171875 -12.703125 7.296875 -12.578125 C 7.421875 -12.453125 7.484375 -12.300781 7.484375 -12.125 C 7.484375 -11.976562 7.4375 -11.84375 7.34375 -11.71875 C 7.257812 -11.632812 7.144531 -11.492188 7 -11.296875 C 6.863281 -11.109375 6.726562 -10.929688 6.59375 -10.765625 C 6.550781 -10.679688 6.5 -10.609375 6.4375 -10.546875 C 6.382812 -10.484375 6.347656 -10.429688 6.328125 -10.390625 C 6.203125 -10.222656 6.03125 -10.140625 5.8125 -10.140625 Z M 0.671875 0.640625 C -0.0664062 0.640625 -0.644531 0.441406 -1.0625 0.046875 C -1.488281 -0.347656 -1.703125 -0.898438 -1.703125 -1.609375 C -1.703125 -2.347656 -1.269531 -3.363281 -0.40625 -4.65625 C 0.457031 -5.945312 1.664062 -7.394531 3.21875 -9 C 3.351562 -9.132812 3.507812 -9.203125 3.6875 -9.203125 C 3.851562 -9.203125 4 -9.132812 4.125 -9 C 4.257812 -8.875 4.328125 -8.726562 4.328125 -8.5625 C 4.328125 -8.40625 4.273438 -8.265625 4.171875 -8.140625 L 4.140625 -8.125 C 3.242188 -7.195312 2.453125 -6.300781 1.765625 -5.4375 C 1.078125 -4.570312 0.539062 -3.804688 0.15625 -3.140625 C -0.226562 -2.484375 -0.421875 -1.972656 -0.421875 -1.609375 C -0.421875 -1.265625 -0.335938 -1.015625 -0.171875 -0.859375 C -0.00390625 -0.710938 0.273438 -0.640625 0.671875 -0.640625 C 1.078125 -0.640625 1.617188 -0.734375 2.296875 -0.921875 C 2.984375 -1.117188 3.765625 -1.382812 4.640625 -1.71875 C 5.515625 -2.050781 6.429688 -2.429688 7.390625 -2.859375 C 8.359375 -3.296875 9.328125 -3.753906 10.296875 -4.234375 C 11.273438 -4.722656 12.207031 -5.210938 13.09375 -5.703125 C 13.988281 -6.191406 14.789062 -6.660156 15.5 -7.109375 C 15.632812 -7.171875 15.742188 -7.203125 15.828125 -7.203125 C 15.992188 -7.203125 16.140625 -7.132812 16.265625 -7 C 16.398438 -6.875 16.46875 -6.726562 16.46875 -6.5625 C 16.46875 -6.3125 16.367188 -6.128906 16.171875 -6.015625 C 15.460938 -5.554688 14.648438 -5.078125 13.734375 -4.578125 C 12.816406 -4.078125 11.851562 -3.578125 10.84375 -3.078125 C 9.84375 -2.585938 8.835938 -2.117188 7.828125 -1.671875 C 6.816406 -1.222656 5.847656 -0.828125 4.921875 -0.484375 C 4.003906 -0.140625 3.175781 0.128906 2.4375 0.328125 C 1.707031 0.535156 1.117188 0.640625 0.671875 0.640625 Z M 0.671875 0.640625 "/></g></g></g><g fill="#1c7675" fill-opacity="1"><g transform="translate(268.876212, 275.360372)"><g><path d="M 2.203125 0.546875 C -0.171875 0.546875 -1.359375 -0.289062 -1.359375 -1.96875 C -1.359375 -2.132812 -1.347656 -2.285156 -1.328125 -2.421875 C -1.316406 -2.566406 -1.300781 -2.695312 -1.28125 -2.8125 C -1.1875 -3.375 -0.972656 -3.945312 -0.640625 -4.53125 C -0.304688 -5.125 0.0976562 -5.6875 0.578125 -6.21875 C 1.066406 -6.757812 1.59375 -7.242188 2.15625 -7.671875 C 2.71875 -8.109375 3.28125 -8.453125 3.84375 -8.703125 C 4.414062 -8.953125 4.953125 -9.078125 5.453125 -9.078125 C 5.953125 -9.078125 6.347656 -8.945312 6.640625 -8.6875 C 6.941406 -8.4375 7.09375 -8.101562 7.09375 -7.6875 C 7.09375 -7.375 7.007812 -7.03125 6.84375 -6.65625 C 6.675781 -6.289062 6.453125 -5.945312 6.171875 -5.625 C 5.898438 -5.300781 5.59375 -5.039062 5.25 -4.84375 C 5.125 -4.78125 5.007812 -4.75 4.90625 -4.75 C 4.726562 -4.75 4.578125 -4.8125 4.453125 -4.9375 C 4.328125 -5.0625 4.265625 -5.210938 4.265625 -5.390625 C 4.265625 -5.640625 4.375 -5.820312 4.59375 -5.9375 C 4.789062 -6.050781 4.976562 -6.207031 5.15625 -6.40625 C 5.34375 -6.601562 5.492188 -6.804688 5.609375 -7.015625 C 5.734375 -7.234375 5.796875 -7.410156 5.796875 -7.546875 C 5.816406 -7.710938 5.703125 -7.796875 5.453125 -7.796875 C 5.078125 -7.796875 4.660156 -7.6875 4.203125 -7.46875 C 3.742188 -7.25 3.28125 -6.957031 2.8125 -6.59375 C 2.351562 -6.226562 1.921875 -5.816406 1.515625 -5.359375 C 1.117188 -4.910156 0.78125 -4.445312 0.5 -3.96875 C 0.226562 -3.488281 0.0507812 -3.035156 -0.03125 -2.609375 C -0.0703125 -2.378906 -0.09375 -2.164062 -0.09375 -1.96875 C -0.09375 -1.507812 0.0703125 -1.1875 0.40625 -1 C 0.738281 -0.820312 1.335938 -0.734375 2.203125 -0.734375 C 3.210938 -0.734375 4.382812 -0.890625 5.71875 -1.203125 C 7.050781 -1.515625 8.460938 -1.953125 9.953125 -2.515625 C 11.453125 -3.085938 12.960938 -3.757812 14.484375 -4.53125 C 16.015625 -5.3125 17.492188 -6.164062 18.921875 -7.09375 C 19.023438 -7.164062 19.140625 -7.203125 19.265625 -7.203125 C 19.441406 -7.203125 19.59375 -7.140625 19.71875 -7.015625 C 19.84375 -6.890625 19.90625 -6.738281 19.90625 -6.5625 C 19.90625 -6.3125 19.804688 -6.132812 19.609375 -6.03125 C 18.148438 -5.070312 16.628906 -4.191406 15.046875 -3.390625 C 13.460938 -2.585938 11.890625 -1.890625 10.328125 -1.296875 C 8.773438 -0.710938 7.300781 -0.257812 5.90625 0.0625 C 4.507812 0.382812 3.273438 0.546875 2.203125 0.546875 Z M 2.203125 0.546875 "/></g></g></g><g fill="#1c7675" fill-opacity="1"><g transform="translate(286.337195, 275.360372)"><g><path d="M 22.921875 -7.203125 C 23.097656 -7.203125 23.25 -7.140625 23.375 -7.015625 C 23.5 -6.890625 23.5625 -6.738281 23.5625 -6.5625 C 23.5625 -6.238281 23.410156 -6.035156 23.109375 -5.953125 C 21.898438 -5.554688 20.597656 -5.148438 19.203125 -4.734375 C 17.816406 -4.316406 16.425781 -3.90625 15.03125 -3.5 C 13.6875 -3.09375 12.382812 -2.703125 11.125 -2.328125 C 9.863281 -1.953125 8.707031 -1.597656 7.65625 -1.265625 C 7.59375 -1.222656 7.554688 -1.191406 7.546875 -1.171875 C 7.140625 -0.585938 6.628906 0.00390625 6.015625 0.609375 C 5.398438 1.222656 4.726562 1.785156 4 2.296875 C 3.28125 2.804688 2.546875 3.222656 1.796875 3.546875 C 1.046875 3.867188 0.332031 4.03125 -0.34375 4.03125 C -0.820312 4.03125 -1.195312 3.921875 -1.46875 3.703125 C -1.75 3.484375 -1.890625 3.1875 -1.890625 2.8125 C -1.890625 2.363281 -1.53125 1.859375 -0.8125 1.296875 C -0.09375 0.734375 0.914062 0.148438 2.21875 -0.453125 C 3.519531 -1.066406 5.03125 -1.675781 6.75 -2.28125 L 6.859375 -2.359375 C 6.972656 -2.523438 7.070312 -2.691406 7.15625 -2.859375 C 7.25 -3.023438 7.28125 -3.132812 7.25 -3.1875 C 7.195312 -3.269531 7.039062 -3.300781 6.78125 -3.28125 C 6.53125 -3.257812 6.210938 -3.210938 5.828125 -3.140625 C 5.453125 -3.078125 5.070312 -3.007812 4.6875 -2.9375 C 4.21875 -2.851562 3.742188 -2.78125 3.265625 -2.71875 C 2.785156 -2.65625 2.347656 -2.625 1.953125 -2.625 C 1.273438 -2.625 0.753906 -2.753906 0.390625 -3.015625 C 0.0234375 -3.273438 -0.15625 -3.644531 -0.15625 -4.125 C -0.15625 -4.613281 0.00390625 -5.128906 0.328125 -5.671875 C 0.660156 -6.222656 1.101562 -6.769531 1.65625 -7.3125 C 2.21875 -7.851562 2.832031 -8.34375 3.5 -8.78125 C 4.175781 -9.21875 4.863281 -9.566406 5.5625 -9.828125 C 6.257812 -10.097656 6.910156 -10.234375 7.515625 -10.234375 C 8.015625 -10.234375 8.410156 -10.101562 8.703125 -9.84375 C 8.992188 -9.59375 9.140625 -9.253906 9.140625 -8.828125 C 9.140625 -8.703125 9.128906 -8.578125 9.109375 -8.453125 C 8.992188 -7.984375 8.765625 -7.515625 8.421875 -7.046875 C 8.078125 -6.578125 7.703125 -6.222656 7.296875 -5.984375 C 7.179688 -5.929688 7.070312 -5.90625 6.96875 -5.90625 C 6.789062 -5.90625 6.640625 -5.96875 6.515625 -6.09375 C 6.390625 -6.21875 6.328125 -6.367188 6.328125 -6.546875 C 6.328125 -6.785156 6.429688 -6.96875 6.640625 -7.09375 C 6.847656 -7.207031 7.046875 -7.363281 7.234375 -7.5625 C 7.421875 -7.769531 7.570312 -7.984375 7.6875 -8.203125 C 7.8125 -8.421875 7.875 -8.601562 7.875 -8.75 C 7.875 -8.820312 7.835938 -8.875 7.765625 -8.90625 C 7.691406 -8.9375 7.609375 -8.953125 7.515625 -8.953125 C 7.066406 -8.953125 6.554688 -8.84375 5.984375 -8.625 C 5.421875 -8.40625 4.851562 -8.113281 4.28125 -7.75 C 3.71875 -7.394531 3.195312 -7.003906 2.71875 -6.578125 C 2.238281 -6.160156 1.847656 -5.742188 1.546875 -5.328125 C 1.253906 -4.921875 1.109375 -4.5625 1.109375 -4.25 C 1.109375 -4.125 1.171875 -4.035156 1.296875 -3.984375 C 1.421875 -3.929688 1.640625 -3.90625 1.953125 -3.90625 C 2.304688 -3.90625 2.695312 -3.929688 3.125 -3.984375 C 3.5625 -4.046875 4.007812 -4.117188 4.46875 -4.203125 C 4.894531 -4.273438 5.316406 -4.335938 5.734375 -4.390625 C 6.148438 -4.453125 6.523438 -4.484375 6.859375 -4.484375 C 7.398438 -4.484375 7.816406 -4.375 8.109375 -4.15625 C 8.398438 -3.9375 8.523438 -3.625 8.484375 -3.21875 C 8.472656 -3.175781 8.460938 -3.117188 8.453125 -3.046875 C 8.453125 -2.972656 8.441406 -2.910156 8.421875 -2.859375 C 9.359375 -3.148438 10.359375 -3.453125 11.421875 -3.765625 C 12.484375 -4.085938 13.566406 -4.40625 14.671875 -4.71875 C 16.066406 -5.125 17.453125 -5.53125 18.828125 -5.9375 C 20.210938 -6.351562 21.503906 -6.757812 22.703125 -7.15625 C 22.773438 -7.1875 22.847656 -7.203125 22.921875 -7.203125 Z M -0.09375 2.75 C 0.34375 2.75 0.863281 2.617188 1.46875 2.359375 C 2.070312 2.097656 2.707031 1.726562 3.375 1.25 C 4.039062 0.769531 4.6875 0.21875 5.3125 -0.40625 C 4.5625 -0.101562 3.832031 0.21875 3.125 0.5625 C 2.414062 0.90625 1.773438 1.226562 1.203125 1.53125 C 0.640625 1.84375 0.195312 2.113281 -0.125 2.34375 C -0.28125 2.4375 -0.359375 2.53125 -0.359375 2.625 C -0.359375 2.707031 -0.269531 2.75 -0.09375 2.75 Z M -0.09375 2.75 "/></g></g></g><g clip-path="url(#3cd5282024)"><path fill="#38b6ff" d="M 222.054688 83.324219 C 221.820312 83.21875 221.582031 83.125 221.339844 83.03125 C 220.992188 82.101562 220.546875 81.167969 220 80.214844 C 218.757812 78.058594 217.097656 76.335938 215.199219 75.25 C 213.089844 74.039062 210.515625 73.492188 207.738281 73.671875 C 204.183594 73.898438 201.984375 75.226562 199.863281 76.503906 C 196.867188 78.3125 194.03125 80.019531 187.417969 78.792969 C 182.738281 77.925781 180.214844 76.921875 178.1875 76.128906 C 175.257812 74.976562 173.320312 74.214844 167.628906 75.027344 C 160.355469 76.070312 158.445312 80.78125 158.363281 80.980469 C 158.269531 81.226562 158.390625 81.507812 158.636719 81.609375 C 158.886719 81.703125 159.164062 81.582031 159.265625 81.335938 C 159.339844 81.15625 161.074219 76.945312 167.761719 75.988281 C 173.207031 75.214844 174.941406 75.894531 177.832031 77.039062 C 179.902344 77.851562 182.476562 78.867188 187.242188 79.753906 C 194.222656 81.046875 197.347656 79.167969 200.371094 77.34375 C 202.488281 76.070312 204.488281 74.863281 207.804688 74.648438 C 210.394531 74.480469 212.785156 74.980469 214.71875 76.097656 C 216.46875 77.105469 218.003906 78.699219 219.164062 80.707031 C 219.550781 81.375 219.878906 82.027344 220.160156 82.683594 C 217.441406 82.027344 214.144531 82.261719 210.335938 83.382812 C 205.882812 84.691406 202.167969 84.972656 194.191406 82.84375 C 186.550781 80.808594 180.503906 81.496094 172.605469 85.292969 C 167.863281 87.574219 164.785156 86.148438 162.316406 84.992188 C 161.054688 84.40625 159.964844 83.898438 158.832031 83.898438 C 157.078125 83.898438 154.199219 84.851562 151.863281 87.527344 C 149.488281 90.230469 146.980469 95.578125 148.378906 105.695312 C 150.996094 124.582031 159.792969 130.363281 168.054688 133.519531 C 175.535156 136.382812 180.410156 134.207031 184.714844 132.285156 C 186.207031 131.617188 187.617188 130.988281 189.070312 130.582031 C 192.28125 129.683594 195.320312 130.667969 198.535156 131.703125 C 201.832031 132.773438 205.5625 133.972656 210 133.285156 C 211.582031 133.039062 213.070312 132.324219 214.425781 131.296875 C 214.472656 131.492188 214.519531 131.683594 214.574219 131.863281 C 214.847656 132.804688 215.175781 133.867188 215.527344 135.027344 C 217.617188 141.835938 220.78125 152.125 221.007812 162.410156 C 221.195312 170.761719 217.984375 187.945312 213.570312 197.601562 C 209.839844 205.765625 204.667969 211.925781 202.179688 212.558594 C 201.839844 212.644531 201.578125 212.621094 201.390625 212.480469 C 200.558594 211.851562 201.230469 208.246094 201.953125 204.429688 C 202.808594 199.871094 203.875 194.199219 203.742188 188.371094 C 203.65625 184.683594 202.972656 180.859375 201.980469 177.113281 C 204.015625 173.222656 205.617188 169.246094 206.15625 164.765625 C 207.511719 153.648438 202.960938 146.074219 197.761719 144.34375 C 195.90625 143.722656 194.257812 144.0625 193.117188 145.304688 C 191.121094 147.472656 191.128906 151.894531 193.128906 156.566406 C 193.464844 157.339844 193.824219 158.167969 194.203125 159.046875 C 196.320312 163.894531 199.128906 170.3125 200.945312 177 C 199.871094 179.035156 198.675781 181.050781 197.460938 183.105469 C 195.339844 186.691406 193.148438 190.394531 191.515625 194.386719 C 190.414062 197.074219 188.117188 202.675781 187.371094 202.816406 C 187.175781 202.75 186.804688 202 186.535156 201.453125 L 186.480469 201.339844 C 185.800781 199.980469 185.867188 195.902344 185.949219 191.175781 C 186.015625 187.070312 186.09375 182.414062 185.726562 178.109375 C 185.195312 171.902344 183.140625 166.234375 181.089844 161.429688 L 181.371094 160.890625 C 181.605469 160.441406 181.835938 159.988281 182.078125 159.542969 C 185.722656 152.574219 189.847656 144.679688 184.140625 141.414062 C 183.085938 140.8125 181.996094 140.6875 181.003906 141.046875 C 179.6875 141.527344 178.554688 142.835938 177.878906 144.652344 C 175.695312 150.53125 177.550781 155.703125 179.820312 160.929688 C 179.886719 161.082031 179.957031 161.242188 180.023438 161.398438 C 176.019531 169.097656 169.457031 181.84375 170.238281 194.859375 C 170.804688 204.308594 171.144531 210.015625 169.757812 211.066406 C 169.542969 211.226562 169.15625 211.390625 168.195312 211.050781 C 164.453125 209.714844 159.273438 201.574219 156.136719 186.390625 C 152.644531 169.511719 154.066406 160.628906 156.128906 153.535156 L 156.269531 153.054688 C 158.613281 144.976562 160.167969 139.644531 157.722656 133.6875 C 157.625 133.4375 157.34375 133.320312 157.089844 133.417969 C 156.84375 133.519531 156.722656 133.804688 156.824219 134.054688 C 159.132812 139.699219 157.625 144.90625 155.335938 152.785156 L 155.195312 153.269531 C 153.097656 160.476562 151.652344 169.503906 155.1875 186.589844 C 158.40625 202.140625 163.878906 210.539062 167.875 211.964844 C 168.921875 212.339844 169.730469 212.300781 170.34375 211.839844 C 172.152344 210.476562 171.859375 205.566406 171.210938 194.800781 C 170.472656 182.433594 176.542969 170.21875 180.515625 162.550781 C 182.425781 167.121094 184.273438 172.433594 184.765625 178.195312 C 185.132812 182.445312 185.054688 187.078125 184.988281 191.164062 C 184.902344 196.214844 184.832031 200.199219 185.621094 201.773438 L 185.675781 201.886719 C 186.230469 203.003906 186.621094 203.804688 187.398438 203.78125 C 188.398438 203.742188 189.265625 202.433594 192.414062 194.753906 C 194.023438 190.828125 196.199219 187.152344 198.300781 183.601562 C 199.34375 181.84375 200.363281 180.117188 201.3125 178.382812 C 202.144531 181.730469 202.707031 185.121094 202.78125 188.398438 C 202.914062 194.125 201.859375 199.738281 201.011719 204.257812 C 200.070312 209.253906 199.503906 212.273438 200.824219 213.261719 C 201.039062 213.421875 201.371094 213.582031 201.839844 213.582031 C 202.019531 213.582031 202.214844 213.5625 202.433594 213.5 C 205.578125 212.699219 210.863281 205.890625 214.472656 198.011719 C 219.011719 188.085938 222.1875 171.019531 221.996094 162.398438 C 221.761719 151.984375 218.578125 141.613281 216.46875 134.753906 C 216.113281 133.597656 215.789062 132.542969 215.515625 131.605469 C 215.421875 131.289062 215.347656 130.957031 215.289062 130.609375 C 218.210938 128.011719 220.417969 124.003906 221.519531 120.332031 C 222.601562 116.734375 222.515625 113.925781 221.292969 112.816406 C 220.691406 112.269531 219.964844 112.214844 219.238281 112.667969 C 216.449219 114.410156 213.5 124.210938 214.253906 130.230469 C 212.917969 131.324219 211.4375 132.085938 209.863281 132.332031 C 205.648438 132.992188 202.191406 131.871094 198.84375 130.789062 C 195.484375 129.703125 192.308594 128.679688 188.816406 129.65625 C 187.289062 130.082031 185.847656 130.730469 184.328125 131.410156 C 179.996094 133.347656 175.515625 135.347656 168.410156 132.632812 C 160.402344 129.5625 151.882812 123.957031 149.335938 105.5625 C 147.988281 95.804688 150.347656 90.710938 152.570312 88.164062 C 154.839844 85.558594 157.5625 84.867188 158.8125 84.867188 C 159.734375 84.867188 160.734375 85.332031 161.890625 85.867188 C 164.40625 87.042969 167.855469 88.644531 173.015625 86.160156 C 180.777344 82.421875 186.449219 81.777344 193.929688 83.769531 C 202.125 85.960938 205.976562 85.667969 210.601562 84.304688 C 214.574219 83.136719 217.921875 82.96875 220.585938 83.796875 C 222.128906 88.316406 221.339844 92.773438 219.417969 98.753906 C 219.257812 99.261719 219.066406 99.78125 218.859375 100.335938 C 218.0625 102.484375 217.167969 104.921875 217.824219 107.277344 C 218.34375 109.144531 219.53125 109.578125 220.191406 109.671875 C 221.882812 109.90625 223.804688 108.550781 224.683594 107.109375 C 225.277344 106.136719 225.773438 104.980469 226.191406 103.59375 C 228.46875 96.132812 228.75 86.339844 222.054688 83.324219 Z M 178.761719 144.992188 C 179.328125 143.46875 180.277344 142.335938 181.308594 141.960938 C 181.578125 141.863281 181.851562 141.816406 182.132812 141.816406 C 182.617188 141.816406 183.125 141.960938 183.640625 142.253906 C 188.539062 145.058594 184.808594 152.191406 181.203125 159.085938 C 180.996094 159.488281 180.78125 159.886719 180.582031 160.28125 C 178.359375 155.164062 176.738281 150.453125 178.761719 144.992188 Z M 195.085938 158.652344 C 194.703125 157.777344 194.335938 156.953125 194.011719 156.175781 C 191.910156 151.265625 192.394531 147.5 193.824219 145.960938 C 194.40625 145.332031 195.144531 145.011719 196.019531 145.011719 C 196.464844 145.011719 196.945312 145.097656 197.453125 145.265625 C 202.28125 146.875 206.492188 154.046875 205.195312 164.652344 C 204.710938 168.625 203.355469 172.222656 201.597656 175.730469 C 199.757812 169.34375 197.109375 163.285156 195.085938 158.652344 Z M 219.738281 113.484375 C 219.917969 113.371094 220.066406 113.332031 220.191406 113.332031 C 220.371094 113.332031 220.507812 113.417969 220.625 113.53125 C 221.519531 114.34375 221.5 116.960938 220.578125 120.050781 C 219.585938 123.367188 217.65625 126.972656 215.132812 129.433594 C 214.695312 123.609375 217.570312 114.839844 219.738281 113.484375 Z M 225.265625 103.320312 C 224.863281 104.628906 224.402344 105.707031 223.855469 106.609375 C 223.054688 107.929688 221.46875 108.871094 220.328125 108.71875 C 219.570312 108.613281 219.042969 108.042969 218.757812 107.023438 C 218.183594 104.96875 218.984375 102.785156 219.765625 100.675781 C 219.972656 100.117188 220.171875 99.582031 220.339844 99.054688 C 222.222656 93.195312 223.050781 88.730469 221.746094 84.25 C 229.691406 87.941406 225.746094 101.75 225.265625 103.320312 Z M 225.265625 103.320312 " fill-opacity="1" fill-rule="nonzero"/></g><g fill="#000000" fill-opacity="1"><g transform="translate(162.595731, 234.115151)"><g><path d="M 0.40625 -0.796875 L 5.609375 -9.21875 L 0.765625 -9.21875 L 0.765625 -10.25 L 6.9375 -10.25 L 7.125 -9.46875 L 1.890625 -1.03125 L 7.484375 -1.03125 L 7.40625 0 L 0.59375 0 Z M 0.40625 -0.796875 "/></g></g></g><g fill="#000000" fill-opacity="1"><g transform="translate(181.298903, 234.115151)"><g><path d="M 4.328125 -10.25 L 5.796875 -10.25 L 9.84375 0 L 8.546875 0 L 7.484375 -2.84375 L 2.65625 -2.84375 L 1.609375 0 L 0.296875 0 Z M 7.09375 -3.78125 L 6.046875 -6.546875 C 5.898438 -6.941406 5.773438 -7.289062 5.671875 -7.59375 L 5.375 -8.46875 C 5.28125 -8.769531 5.175781 -9.082031 5.0625 -9.40625 C 4.96875 -9.113281 4.875 -8.820312 4.78125 -8.53125 C 4.78125 -8.53125 4.675781 -8.21875 4.46875 -7.59375 C 4.46875 -7.59375 3.992188 -6.320312 3.046875 -3.78125 Z M 7.09375 -3.78125 "/></g></g></g><g fill="#000000" fill-opacity="1"><g transform="translate(202.251835, 234.115151)"><g><path d="M 1.09375 -10.25 L 2.78125 -10.25 L 7.09375 -2.6875 L 7.90625 -1.078125 L 7.90625 -10.25 L 9.046875 -10.25 L 9.046875 0 L 7.359375 0 L 3.015625 -7.609375 L 2.234375 -9.171875 L 2.234375 0 L 1.09375 0 Z M 1.09375 -10.25 "/></g></g></g></svg>